<?xml version="1.0" encoding="utf-8"?>
<!-- Generator: Adobe Illustrator 17.0.0, SVG Export Plug-In . SVG Version: 6.00 Build 0)  -->
<!DOCTYPE svg PUBLIC "-//W3C//DTD SVG 1.1//EN" "http://www.w3.org/Graphics/SVG/1.1/DTD/svg11.dtd">
<svg version="1.1" id="Layer_1" xmlns="http://www.w3.org/2000/svg" xmlns:xlink="http://www.w3.org/1999/xlink" x="0px" y="0px"
	 width="496.912px" height="152.688px" viewBox="-20 -20 496.912 152.688" enable-background="new -20 -20 496.912 152.688"
	 xml:space="preserve">
<g>
	<rect x="-20" y="-20" fill="#FF6F00" width="496.912" height="152.688"/>
	<g>
		<g>
			<path fill="#FFFFFF" d="M139.499,71.165h-34.935l-11.998,30.347H85.92l34.582-86.337h3.823l33.876,86.337h-6.764L139.499,71.165z
				 M106.741,65.755H137.5L125.796,34.76c-0.98-2.43-2.157-5.802-3.529-10.116c-1.059,3.764-2.216,7.175-3.47,10.233L106.741,65.755
				z"/>
			<path fill="#FFFFFF" d="M248.773,101.513V59.58c0-6.234-1.216-10.782-3.646-13.645c-2.432-2.862-6.156-4.293-11.175-4.293
				c-6.548,0-11.39,1.804-14.527,5.411c-3.137,3.608-4.705,9.273-4.705,16.997v37.463h-5.94V57.815
				c0-10.782-4.94-16.173-14.821-16.173c-6.705,0-11.586,1.951-14.644,5.852c-3.058,3.902-4.587,10.146-4.587,18.732v35.288h-5.822
				V37.585h4.822l1.235,8.763h0.353c1.765-3.176,4.273-5.636,7.528-7.381c3.254-1.744,6.841-2.617,10.763-2.617
				c10.076,0,16.545,3.784,19.408,11.351h0.235c2.078-3.646,4.872-6.449,8.381-8.41c3.509-1.96,7.499-2.94,11.968-2.94
				c6.979,0,12.213,1.862,15.704,5.587c3.489,3.726,5.234,9.646,5.234,17.761v41.816h-5.764L248.773,101.513L248.773,101.513z"/>
			<path fill="#FFFFFF" d="M302.233,36.348c8.939,0,15.673,2.813,20.202,8.439s6.793,13.85,6.793,24.672
				c0,10.626-2.383,18.82-7.146,24.584s-11.458,8.645-20.084,8.645c-4.548,0-8.645-0.94-12.291-2.822
				c-3.646-1.882-6.528-4.548-8.646-7.999h-0.529l-1.647,9.646h-3.646V10h5.822v22.996c0,3.451-0.079,6.626-0.235,9.528
				l-0.177,4.999h0.412c2.431-3.842,5.36-6.665,8.792-8.469C293.284,37.251,297.411,36.348,302.233,36.348z M302.116,41.641
				c-7.528,0-12.92,2.157-16.174,6.469c-3.255,4.313-4.881,11.43-4.881,21.349v1c0,9.645,1.695,16.566,5.087,20.761
				c3.391,4.195,8.675,6.293,15.85,6.293c6.979,0,12.233-2.441,15.762-7.322c3.529-4.882,5.293-11.831,5.293-20.849
				C323.053,50.875,316.074,41.641,302.116,41.641z"/>
			<path fill="#FFFFFF" d="M372.749,102.688c-9.292,0-16.536-2.861-21.731-8.586c-5.195-5.725-7.792-13.742-7.792-24.055
				c0-10.194,2.509-18.358,7.527-24.495c5.019-6.136,11.782-9.204,20.291-9.204c7.527,0,13.468,2.627,17.82,7.881
				s6.527,12.39,6.527,21.408v4.705h-46.05c0.078,8.783,2.126,15.488,6.146,20.114c4.019,4.627,9.772,6.939,17.262,6.939
				c3.646,0,6.852-0.254,9.616-0.765c2.764-0.509,6.264-1.606,10.498-3.293v5.293c-3.608,1.568-6.94,2.638-9.998,3.205
				C379.807,102.404,376.435,102.688,372.749,102.688z M371.044,41.524c-6.156,0-11.097,2.029-14.821,6.087
				c-3.726,4.058-5.901,9.91-6.528,17.556h39.522c0-7.41-1.608-13.203-4.823-17.379C381.179,43.612,376.729,41.524,371.044,41.524z"
				/>
			<path fill="#FFFFFF" d="M438.208,36.348c2.705,0,5.606,0.274,8.704,0.823l-1.117,5.587c-2.667-0.666-5.432-1-8.293-1
				c-5.45,0-9.92,2.314-13.409,6.94c-3.49,4.627-5.234,10.468-5.234,17.526v35.288h-5.822V37.583h4.94l0.588,11.527h0.411
				c2.627-4.705,5.431-8.008,8.41-9.91C430.365,37.299,433.974,36.348,438.208,36.348z"/>
		</g>
	</g>
	<path fill="#80DEEA" d="M67,63.508c0,0-3.853,3.708-28.5,8.24S10,79.988,10,79.988V68.781c0,0,3.853-3.708,28.5-8.24
		s28.5-8.24,28.5-8.24V63.508z"/>
	<path fill="#80DEEA" d="M67,30.206c0,0-3.853,3.708-28.5,8.24S10,46.686,10,46.686V35.479c0,0,3.853-3.708,28.5-8.24
		c24.647-4.532,28.5-8.24,28.5-8.24V30.206z"/>
	<path fill="#E0F7FA" d="M67,51.96c0,0-3.853-3.708-28.5-8.24S10,35.48,10,35.48v11.207c0,0,3.853,3.708,28.5,8.24
		s28.5,8.24,28.5,8.24V51.96z"/>
	<path fill="#E0F7FA" d="M67,85.262c0,0-3.853-3.708-28.5-8.24S10,68.782,10,68.782v11.207c0,0,3.853,3.708,28.5,8.24
		c24.647,4.532,28.5,8.24,28.5,8.24V85.262z"/>
</g>
</svg>
