<?xml version="1.0" encoding="utf-8"?>
<!-- Generator: Adobe Illustrator 17.0.0, SVG Export Plug-In . SVG Version: 6.00 Build 0)  -->
<!DOCTYPE svg PUBLIC "-//W3C//DTD SVG 1.1//EN" "http://www.w3.org/Graphics/SVG/1.1/DTD/svg11.dtd">
<svg version="1.1" id="Layer_1" xmlns="http://www.w3.org/2000/svg" xmlns:xlink="http://www.w3.org/1999/xlink" x="0px" y="0px"
	 width="436.912px" height="92.688px" viewBox="0 0 436.912 92.688" enable-background="new 0 0 436.912 92.688"
	 xml:space="preserve">
<g>
	<g>
		<g>
			<path fill="#80DEEA" d="M129.499,61.165H94.564L82.566,91.512H75.92l34.582-86.337h3.823l33.876,86.337h-6.764L129.499,61.165z
				 M96.741,55.755H127.5L115.796,24.76c-0.98-2.43-2.157-5.802-3.529-10.116c-1.059,3.764-2.216,7.175-3.47,10.233L96.741,55.755z"
				/>
			<path fill="#80DEEA" d="M238.773,91.513V49.58c0-6.234-1.216-10.782-3.646-13.645c-2.432-2.862-6.156-4.293-11.175-4.293
				c-6.548,0-11.39,1.804-14.527,5.411c-3.137,3.608-4.705,9.273-4.705,16.997v37.463h-5.94V47.815
				c0-10.782-4.94-16.173-14.821-16.173c-6.705,0-11.586,1.951-14.644,5.852c-3.058,3.902-4.587,10.146-4.587,18.732v35.288h-5.822
				V27.585h4.822l1.235,8.763h0.353c1.765-3.176,4.273-5.636,7.528-7.381c3.254-1.744,6.841-2.617,10.763-2.617
				c10.076,0,16.545,3.784,19.408,11.351h0.235c2.078-3.646,4.872-6.449,8.381-8.41c3.509-1.96,7.499-2.94,11.968-2.94
				c6.979,0,12.213,1.862,15.704,5.587c3.489,3.726,5.234,9.646,5.234,17.761v41.816h-5.764L238.773,91.513L238.773,91.513z"/>
			<path fill="#80DEEA" d="M292.233,26.348c8.939,0,15.673,2.813,20.202,8.439s6.793,13.85,6.793,24.672
				c0,10.626-2.383,18.82-7.146,24.584s-11.458,8.645-20.084,8.645c-4.548,0-8.645-0.94-12.291-2.822
				c-3.646-1.882-6.528-4.548-8.646-7.999h-0.529l-1.647,9.646h-3.646V0h5.822v22.996c0,3.451-0.079,6.626-0.235,9.528l-0.177,4.999
				h0.412c2.431-3.842,5.36-6.665,8.792-8.469C283.284,27.251,287.411,26.348,292.233,26.348z M292.116,31.641
				c-7.528,0-12.92,2.157-16.174,6.469c-3.255,4.313-4.881,11.43-4.881,21.349v1c0,9.645,1.695,16.566,5.087,20.761
				c3.391,4.195,8.675,6.293,15.85,6.293c6.979,0,12.233-2.441,15.762-7.322c3.529-4.882,5.293-11.831,5.293-20.849
				C313.053,40.875,306.074,31.641,292.116,31.641z"/>
			<path fill="#80DEEA" d="M362.749,92.688c-9.292,0-16.536-2.861-21.731-8.586c-5.195-5.725-7.792-13.742-7.792-24.055
				c0-10.194,2.509-18.358,7.527-24.495c5.019-6.136,11.782-9.204,20.291-9.204c7.527,0,13.468,2.627,17.82,7.881
				s6.527,12.39,6.527,21.408v4.705h-46.05c0.078,8.783,2.126,15.488,6.146,20.114c4.019,4.627,9.772,6.939,17.262,6.939
				c3.646,0,6.852-0.254,9.616-0.765c2.764-0.509,6.264-1.606,10.498-3.293v5.293c-3.608,1.568-6.94,2.638-9.998,3.205
				C369.807,92.404,366.435,92.688,362.749,92.688z M361.044,31.524c-6.156,0-11.097,2.029-14.821,6.087
				c-3.726,4.058-5.901,9.91-6.528,17.556h39.522c0-7.41-1.608-13.203-4.823-17.379C371.179,33.612,366.729,31.524,361.044,31.524z"
				/>
			<path fill="#80DEEA" d="M428.208,26.348c2.705,0,5.606,0.274,8.704,0.823l-1.117,5.587c-2.667-0.666-5.432-1-8.293-1
				c-5.45,0-9.92,2.314-13.409,6.94c-3.49,4.627-5.234,10.468-5.234,17.526v35.288h-5.822V27.583h4.94l0.588,11.527h0.411
				c2.627-4.705,5.431-8.008,8.41-9.91C420.365,27.299,423.974,26.348,428.208,26.348z"/>
		</g>
	</g>
	<path fill="#FF6F00" d="M57,53.508c0,0-3.853,3.708-28.5,8.24S0,69.988,0,69.988V58.781c0,0,3.853-3.708,28.5-8.24
		s28.5-8.24,28.5-8.24V53.508z"/>
	<path fill="#FF6F00" d="M57,20.206c0,0-3.853,3.708-28.5,8.24S0,36.686,0,36.686V25.479c0,0,3.853-3.708,28.5-8.24
		C53.147,12.707,57,8.999,57,8.999V20.206z"/>
	<path fill="#FF8F00" d="M57,41.96c0,0-3.853-3.708-28.5-8.24S0,25.48,0,25.48v11.207c0,0,3.853,3.708,28.5,8.24
		s28.5,8.24,28.5,8.24V41.96z"/>
	<path fill="#FF8F00" d="M57,75.262c0,0-3.853-3.708-28.5-8.24S0,58.782,0,58.782v11.207c0,0,3.853,3.708,28.5,8.24
		c24.647,4.532,28.5,8.24,28.5,8.24V75.262z"/>
</g>
</svg>
